<?xml version="1.0" standalone="no"?>
<!DOCTYPE svg PUBLIC "-//W3C//DTD SVG 20010904//EN"
 "http://www.w3.org/TR/2001/REC-SVG-20010904/DTD/svg10.dtd">
<svg version="1.0" xmlns="http://www.w3.org/2000/svg"
 width="539.000000pt" height="539.000000pt" viewBox="0 0 539.000000 539.000000"
 preserveAspectRatio="xMidYMid meet">
<metadata>
Created by potrace 1.11, written by Peter Selinger 2001-2013
</metadata>
<g transform="translate(0.000000,539.000000) scale(0.100000,-0.100000)"
fill="#000000" stroke="none">
<path d="M214 5172 c2 -4 372 -551 820 -1215 l816 -1207 -850 -1266 c-467
-696 -850 -1268 -850 -1270 0 -2 406 -3 902 -2 l902 3 328 565 c181 311 343
591 361 622 l32 57 370 -622 370 -622 903 -3 c496 -1 902 0 902 2 0 2 -383
574 -850 1270 l-850 1266 768 1138 c423 625 792 1172 821 1215 l52 77 -903 0
-903 0 -339 -595 c-289 -507 -341 -593 -351 -578 -6 10 -155 278 -331 596
l-319 577 -903 0 c-497 0 -901 -4 -898 -8z"/>
</g>
</svg>
