<?xml version="1.0" standalone="no"?>
<!DOCTYPE svg PUBLIC "-//W3C//DTD SVG 20010904//EN"
 "http://www.w3.org/TR/2001/REC-SVG-20010904/DTD/svg10.dtd">
<svg version="1.0" xmlns="http://www.w3.org/2000/svg"
 width="500.000000pt" height="500.000000pt" viewBox="0 0 500.000000 500.000000"
 preserveAspectRatio="xMidYMid meet">
<metadata>
Created by potrace 1.11, written by Peter Selinger 2001-2013
</metadata>
<g transform="translate(0.000000,500.000000) scale(0.100000,-0.100000)"
fill="#000000" stroke="none">
<path d="M4 3167 c-2 -7 -3 -89 -2 -182 l3 -170 194 -3 c125 -1 199 -6 208
-14 11 -9 13 -105 13 -527 l-1 -516 220 -3 221 -2 0 518 c0 390 3 521 12 530
8 8 67 12 200 12 118 0 188 4 189 10 0 6 0 82 0 170 0 88 0 167 0 175 -1 13
-77 15 -626 15 -501 0 -627 -3 -631 -13z"/>
<path d="M1335 3158 c-3 -13 -4 -333 -3 -713 l3 -690 608 -3 607 -2 -2 177 -3
178 -380 5 -380 5 0 85 0 85 383 3 382 2 -2 168 -3 167 -380 5 -380 5 -3 79
c-2 57 1 82 10 87 7 5 181 9 386 9 l372 0 0 185 0 185 -605 0 -605 0 -5 -22z"/>
<path d="M2637 3174 c-4 -4 -7 -326 -7 -716 0 -560 3 -708 13 -708 6 0 187 0
400 0 309 0 401 4 455 16 257 58 423 211 487 449 22 83 30 290 16 398 -37 279
-194 468 -448 539 -74 21 -100 23 -494 25 -228 2 -418 0 -422 -3z m722 -389
c135 -47 201 -156 201 -330 0 -113 -29 -201 -88 -261 -60 -62 -108 -77 -259
-82 -108 -4 -133 -2 -133 9 -4 130 1 672 6 681 10 15 218 3 273 -17z"/>
<path d="M4080 3167 c0 -8 28 -54 62 -103 35 -49 86 -123 115 -164 29 -41 64
-94 79 -117 l25 -42 -146 -212 c-80 -116 -144 -218 -141 -225 6 -15 282 -20
305 -5 8 5 40 51 71 102 58 97 75 113 87 82 11 -29 83 -146 106 -170 19 -22
28 -23 168 -23 85 0 150 4 154 10 3 5 -60 104 -140 220 -80 116 -145 218 -145
225 0 13 44 79 212 317 37 53 68 102 68 107 0 7 -54 11 -163 11 l-163 0 -27
-52 c-52 -103 -77 -143 -89 -143 -7 0 -37 44 -67 98 l-55 97 -158 0 c-125 0
-158 -3 -158 -13z"/>
</g>
</svg>
