<?xml version="1.0" encoding="utf-8"?>
<!-- Generator: Adobe Illustrator 25.0.0, SVG Export Plug-In . SVG Version: 6.00 Build 0)  -->
<svg version="1.1" id="Layer_1" xmlns="http://www.w3.org/2000/svg" xmlns:xlink="http://www.w3.org/1999/xlink" x="0px" y="0px"
	 viewBox="0 0 68 78" style="enable-background:new 0 0 68 78;" xml:space="preserve">
<style type="text/css">
	.st0{fill:#FFFFFF;}
</style>
<g>
	<path class="st0" d="M67.2,49.4c-3.3,17.8-20,30.3-38.6,27.3C9.3,73.5-0.7,56.1,0.3,42.2h9.2C9.5,51.5,13.2,59,21.1,64
		c5.5,3.5,11.6,4.5,17.9,3.1c12.5-2.6,21-15,19.1-27.5c-2.3-14.5-14.9-21.2-23.2-20.9V27c-5.9-4.5-11.5-8.7-17.3-13.1
		c5.8-4.4,11.4-8.6,17.2-13v8.3c11.6,0.7,20.8,5.6,27.2,15.2C67.2,32,68.8,40.4,67.2,49.4z"/>
	<path class="st0" d="M45.9,43.1c0,6.7-5.3,12.1-12,12.1c-6.6,0-11.9-5.4-12-12c0-6.7,5.3-12,12-12C40.6,31.2,45.8,36.4,45.9,43.1z"
		/>
</g>
</svg>
