<svg width="68" height="69" viewBox="0 0 68 69" fill="none" xmlns="http://www.w3.org/2000/svg">
<path d="M12.9891 44.5443L12.793 44.0886L12.3358 44.281L4.84145 47.4356L4.38053 47.6297L4.57463 48.0905C7.58893 55.2479 12.8909 61.1156 19.5932 64.7035C26.296 68.2917 33.9882 69.3796 41.3758 67.7827C48.763 66.1858 55.3908 62.0027 60.147 55.9411C64.9029 49.8799 67.4982 42.3092 67.5 34.502C67.5003 27.4098 65.3594 20.4937 61.3751 14.7229C57.3906 8.95175 51.7614 4.61424 45.2741 2.32161C38.7866 0.0288859 31.7688 -0.102869 25.2052 1.94499C19.1009 3.84955 13.6764 7.54973 9.58163 12.5778V3.79326V3.29326H9.08163H1H0.5V3.79326V26.1268V26.3287L0.640199 26.474L4.68102 30.6616L4.82847 30.8144H5.04082H23.898H24.398V30.3144V21.9393V21.4393H23.898H14.5395C17.1569 17.0974 21.0177 13.7051 25.588 11.7421C30.4155 9.66858 35.7674 9.30458 40.8141 10.7058C45.8611 12.1071 50.3242 15.1965 53.5087 19.4987C56.6933 23.8011 58.4202 29.0749 58.4184 34.5018V34.5021C58.4202 40.1482 56.5512 45.6217 53.1271 50.0071C49.7033 54.3922 44.9332 57.4227 39.6167 58.5962C34.3006 59.7698 28.7563 59.0164 23.9101 56.4605C19.0635 53.9044 15.2068 49.699 12.9891 44.5443Z" fill="white" stroke="white"/>
</svg>
